<svg width="115" height="80" viewBox="0 0 115 80" fill="none"
    xmlns="http://www.w3.org/2000/svg">
    <path d="M15.8753 51.8133C18.1481 38.6339 25.0548 27.124 35.3764 19.9731C36.2985 19.3337 37.0515 18.481 37.5711 17.4879C38.0906 16.4947 38.3612 15.3908 38.3596 14.2705C38.3592 13.8631 38.4444 13.4602 38.6098 13.0877C38.7752 12.7152 39.0171 12.3815 39.3198 12.108L42.8797 41.4739L47.522 5.08185C47.5228 4.96958 47.568 4.86217 47.6478 4.78306C47.7277 4.70394 47.8357 4.65954 47.9482 4.65954H66.0203C66.1325 4.65954 66.2402 4.70403 66.3196 4.78323C66.399 4.86243 66.4436 4.96984 66.4436 5.08185L71.103 41.4739L74.6657 12.108C74.968 12.3818 75.2096 12.7156 75.3749 13.088C75.5403 13.4604 75.6258 13.8632 75.626 14.2705C75.6225 15.3927 75.8922 16.4989 76.4118 17.4942C76.9314 18.4894 77.6854 19.344 78.6091 19.9844C88.9307 27.1353 95.8402 38.6453 98.1102 51.8246H102.832C101.931 46.0107 100.136 40.3703 97.5108 35.1024C93.6071 27.3535 87.9903 20.7979 81.2712 16.1468C80.9686 15.936 80.7217 15.6552 80.5515 15.3285C80.3813 15.0017 80.2929 14.6388 80.2938 14.2705C80.2923 12.2592 79.4909 10.3306 78.0656 8.90815C76.6402 7.48565 74.7073 6.68546 72.6911 6.68321H71.1228V5.08185C71.1228 3.73406 70.5862 2.44147 69.6308 1.48844C68.6755 0.535407 67.3798 0 66.0288 0H47.9567C46.6057 0 45.31 0.535407 44.3547 1.48844C43.3994 2.44147 42.8627 3.73406 42.8627 5.08185V6.68321H41.2944C39.2782 6.68546 37.3453 7.48565 35.9199 8.90815C34.4946 10.3306 33.6932 12.2592 33.6917 14.2705C33.6926 14.6388 33.6042 15.0017 33.434 15.3285C33.2638 15.6552 33.0169 15.936 32.7143 16.1468C25.9952 20.7979 20.3784 27.3535 16.4719 35.0968C13.8491 40.3632 12.0562 46.0016 11.1562 51.8133H15.8753Z" fill="#231F20"/>
    <path d="M69.1404 54.6333C68.588 51.8243 67.0746 49.2939 64.8589 47.4751C62.6431 45.6562 59.8628 44.6617 56.9934 44.6617C54.124 44.6617 51.3437 45.6562 49.128 47.4751C46.9123 49.2939 45.3988 51.8243 44.8464 54.6333H0V59.5366H9.09144C10.6119 59.5354 12.1177 59.8332 13.5228 60.4128C14.9279 60.9924 16.2047 61.8425 17.2804 62.9145C18.3561 63.9866 19.2094 65.2595 19.7918 66.6607C20.3742 68.0618 20.6741 69.5637 20.6745 71.0805V80H24.3679V71.0805C24.3687 68.0191 25.5881 65.0833 27.758 62.9185C29.928 60.7538 32.8708 59.5373 35.9396 59.5366H44.8634C45.4461 62.3127 46.9688 64.8042 49.1756 66.5925C51.3824 68.3808 54.1389 69.357 56.982 69.357C59.8252 69.357 62.5817 68.3808 64.7885 66.5925C66.9953 64.8042 68.518 62.3127 69.1007 59.5366H78.0216C81.0914 59.5366 84.0354 60.7531 86.2061 62.9185C88.3767 65.084 89.5962 68.021 89.5962 71.0834V80H93.2896V71.0805C93.2903 68.0186 94.5101 65.0824 96.6807 62.9175C98.8512 60.7527 101.795 59.5366 104.864 59.5366H113.956V54.6333H69.1404ZM56.992 63.9155C55.6222 63.9149 54.2833 63.5092 53.1446 62.7496C52.0059 61.99 51.1185 60.9106 50.5947 59.6479C50.0709 58.3852 49.9341 56.996 50.2017 55.6558C50.4693 54.3155 51.1292 53.0846 52.098 52.1185C53.0668 51.1524 54.301 50.4946 55.6446 50.2282C56.9881 49.9618 58.3807 50.0988 59.6462 50.6219C60.9117 51.1449 61.9933 52.0306 62.7542 53.1669C63.5152 54.3032 63.9214 55.639 63.9214 57.0056C63.9214 57.9132 63.7421 58.812 63.3939 59.6505C63.0456 60.4891 62.5351 61.2509 61.8916 61.8926C61.2481 62.5343 60.4842 63.0432 59.6435 63.3903C58.8028 63.7374 57.9018 63.9159 56.992 63.9155Z" fill="#231F20"/>
</svg>
