<svg width="372" height="64" viewBox="0 0 372 64" fill="none"
    xmlns="http://www.w3.org/2000/svg">
    <path d="M12.7003 41.4506C14.5186 30.9071 20.0439 21.6992 28.3012 15.9785C29.0389 15.467 29.6413 14.7848 30.0569 13.9903C30.4725 13.1958 30.689 12.3126 30.6877 11.4164C30.6874 11.0905 30.7556 10.7681 30.8879 10.4702C31.0202 10.1722 31.2137 9.90516 31.4559 9.6864L34.3038 33.1791L38.0177 4.06548C38.0183 3.97567 38.0544 3.88974 38.1183 3.82645C38.1822 3.76315 38.2686 3.72763 38.3586 3.72763H52.8163C52.9061 3.72763 52.9922 3.76323 53.0557 3.82658C53.1192 3.88994 53.1549 3.97587 53.1549 4.06548L56.8824 33.1791L59.7326 9.6864C59.9744 9.90543 60.1677 10.1725 60.3 10.4704C60.4323 10.7683 60.5007 11.0906 60.5008 11.4164C60.498 12.3142 60.7138 13.1991 61.1295 13.9953C61.5452 14.7916 62.1484 15.4752 62.8873 15.9876C71.1446 21.7082 76.6722 30.9162 78.4882 41.4597H82.2657C81.5447 36.8086 80.1088 32.2963 78.0086 28.0819C74.8857 21.8828 70.3923 16.6383 65.017 12.9175C64.7749 12.7488 64.5774 12.5241 64.4412 12.2628C64.3051 12.0014 64.2343 11.711 64.2351 11.4164C64.2339 9.80737 63.5928 8.26451 62.4525 7.12652C61.3122 5.98852 59.7659 5.34837 58.1529 5.34657H56.8983V4.06548C56.8983 2.98725 56.469 1.95318 55.7047 1.19075C54.9404 0.428326 53.9039 0 52.8231 0H38.3654C37.2846 0 36.248 0.428326 35.4838 1.19075C34.7195 1.95318 34.2902 2.98725 34.2902 4.06548V5.34657H33.0356C31.4226 5.34837 29.8763 5.98852 28.736 7.12652C27.5957 8.26451 26.9546 9.80737 26.9534 11.4164C26.9541 11.711 26.8834 12.0014 26.7473 12.2628C26.6111 12.5241 26.4136 12.7488 26.1715 12.9175C20.7962 16.6383 16.3028 21.8828 13.1776 28.0774C11.0794 32.2906 9.64499 36.8013 8.92505 41.4506H12.7003Z" fill="#231F20"/>
    <path d="M55.3123 43.7066C54.8704 41.4594 53.6596 39.4352 51.8871 37.9801C50.1145 36.525 47.8903 35.7294 45.5947 35.7294C43.2992 35.7294 41.0749 36.525 39.3024 37.9801C37.5298 39.4352 36.319 41.4594 35.8771 43.7066H0V47.6293H7.27315C8.48953 47.6284 9.69416 47.8666 10.8182 48.3303C11.9423 48.7939 12.9638 49.474 13.8243 50.3317C14.6848 51.1893 15.3676 52.2076 15.8335 53.3286C16.2994 54.4495 16.5393 55.651 16.5396 56.8645V64H19.4943V56.8645C19.4949 54.4153 20.4704 52.0667 22.2064 50.3349C23.9424 48.6031 26.2967 47.6299 28.7517 47.6293H35.8907C36.3569 49.8502 37.575 51.8434 39.3405 53.274C41.1059 54.7047 43.3111 55.4856 45.5856 55.4856C47.8601 55.4856 50.0654 54.7047 51.8308 53.274C53.5963 51.8434 54.8144 49.8502 55.2805 47.6293H62.4173C64.8731 47.6293 67.2283 48.6025 68.9649 50.3349C70.7014 52.0672 71.6769 54.4168 71.6769 56.8667V64H74.6317V56.8645C74.6323 54.4149 75.6081 52.0659 77.3445 50.3341C79.081 48.6022 81.4359 47.6293 83.8913 47.6293H91.1644V43.7066H55.3123ZM45.5936 51.1324C44.4977 51.132 43.4266 50.8074 42.5157 50.1997C41.6047 49.592 40.8948 48.7285 40.4758 47.7184C40.0567 46.7082 39.9473 45.5968 40.1614 44.5246C40.3754 43.4525 40.9034 42.4677 41.6784 41.6948C42.4535 40.9219 43.4408 40.3957 44.5157 40.1826C45.5905 39.9695 46.7045 40.0791 47.7169 40.4975C48.7293 40.916 49.5946 41.6245 50.2034 42.5335C50.8122 43.4426 51.1371 44.5112 51.1371 45.6045C51.1371 46.3306 50.9937 47.0496 50.7151 47.7205C50.4365 48.3913 50.0281 49.0008 49.5133 49.5141C48.9985 50.0275 48.3874 50.4346 47.7148 50.7123C47.0423 50.99 46.3215 51.1327 45.5936 51.1324Z" fill="#231F20"/>
    <path d="M151.088 20.4429C148.333 18.8557 144.524 17.6948 140.247 17.6948C132.216 17.6948 126.357 23.6014 126.357 31.551C126.357 39.0947 131.866 45.4072 139.54 45.4072C146.983 45.4072 151.554 40.2624 151.554 34.476C151.563 34.0074 151.544 33.5387 151.497 33.0724H139.251V27.0502H158.354C158.679 28.8618 158.837 30.6993 158.825 32.5396C158.825 43.1216 151.849 52.0666 139.367 52.0666C127.823 52.0666 119.5 43.0627 119.5 31.5442C119.5 19.9101 128.173 11.0241 140.247 11.0241C144.524 11.0241 148.392 11.9016 151.088 13.1282V20.4429Z" fill="#231F20"/>
    <path d="M166.98 9.9198C169.264 9.9198 170.905 11.7337 170.905 13.8969C170.905 16.1167 169.264 17.8716 166.98 17.8716C166.449 17.8843 165.92 17.7908 165.425 17.5967C164.931 17.4026 164.48 17.1117 164.1 16.7413C163.719 16.3708 163.417 15.9283 163.211 15.4396C163.004 14.9509 162.898 14.426 162.898 13.8957C162.898 13.3655 163.004 12.8405 163.211 12.3519C163.417 11.8632 163.719 11.4206 164.1 11.0501C164.48 10.6797 164.931 10.3889 165.425 10.1947C165.92 10.0006 166.449 9.90714 166.98 9.9198ZM170.203 51.4294H163.759V22.665H170.205L170.203 51.4294Z" fill="#231F20"/>
    <path d="M204.862 22.6649V48.6223C204.862 58.5627 198.825 63.9999 189.331 63.9999C185.11 63.9999 181.36 62.771 179.426 61.66V54.9371C181.769 56.5741 185.697 57.9777 189.331 57.9777C194.604 57.9777 198.423 54.5879 198.423 49.3842V46.0511C196.377 49.0917 192.913 51.1958 188.461 51.1958C180.49 51.1958 174.687 44.94 174.687 36.698C174.687 28.4559 180.49 22.08 188.401 22.08C192.913 22.08 196.372 24.1864 198.423 27.3426V22.6649H204.862ZM189.799 28.3947C185.051 28.3947 181.535 32.0226 181.535 36.639C181.535 41.3144 185.051 44.94 189.799 44.94C194.547 44.94 198.063 41.3122 198.063 36.639C198.063 32.0203 194.545 28.3947 189.799 28.3947Z" fill="#231F20"/>
    <path d="M212.285 11.6793H225.061C232.093 11.6793 237.25 15.772 237.25 22.1434C237.25 26.5286 235.205 29.4513 232.023 30.9728C235.832 32.56 238.409 35.7071 238.409 40.5594C238.409 47.2256 232.955 51.443 225.518 51.443H212.285V11.6793ZM225.061 18.0508H218.965V27.8143H225.061C227.991 27.8143 230.393 26.354 230.393 22.962C230.393 19.6153 227.991 18.0462 225.061 18.0462V18.0508ZM225.529 34.2469H218.965V45.0625H225.529C228.87 45.0625 231.566 43.3665 231.566 39.6819C231.566 35.9407 228.87 34.2424 225.529 34.2424V34.2469Z" fill="#231F20"/>
    <path d="M250.335 26.1726C251.682 23.776 254.026 22.0913 257.424 22.0913C258.229 22.0893 259.032 22.1485 259.828 22.2682V29.1067C258.606 28.5923 257.291 28.3338 255.964 28.3471C252.448 28.3471 250.455 30.8027 250.339 34.4873V51.4407H243.891V22.665H250.339L250.335 26.1726Z" fill="#231F20"/>
    <path d="M266.238 9.9198C268.511 9.9198 270.163 11.7337 270.163 13.8969C270.163 16.1167 268.522 17.8716 266.238 17.8716C265.707 17.8843 265.178 17.7908 264.683 17.5967C264.189 17.4026 263.738 17.1117 263.358 16.7413C262.977 16.3708 262.675 15.9283 262.469 15.4396C262.263 14.9509 262.156 14.426 262.156 13.8957C262.156 13.3655 262.263 12.8405 262.469 12.3519C262.675 11.8632 262.977 11.4206 263.358 11.0501C263.738 10.6797 264.189 10.3889 264.683 10.1947C265.178 10.0006 265.707 9.90714 266.238 9.9198ZM269.461 51.4294H263.015V22.665H269.461V51.4294Z" fill="#231F20"/>
    <path d="M297.82 46.7517C295.708 50.0259 292.192 52.0734 287.915 52.0734C279.71 52.0734 273.909 45.4661 273.909 37.0472C273.909 28.5693 279.71 22.0822 287.974 22.0822C292.251 22.0822 295.701 24.0708 297.82 27.3449V11.0898H304.207V51.4294H297.82V46.7517ZM289.203 28.3857C284.28 28.3857 280.589 32.2403 280.589 37.0381C280.589 41.7748 284.28 45.7495 289.203 45.7495C294.126 45.7495 297.82 41.7748 297.82 37.0381C297.82 32.2539 294.126 28.3947 289.203 28.3947V28.3857Z" fill="#231F20"/>
    <path d="M339.033 22.6649V48.6223C339.033 58.5627 332.997 63.9999 323.503 63.9999C319.284 63.9999 315.534 62.771 313.6 61.66V54.9371C315.943 56.5741 319.871 57.9777 323.503 57.9777C328.778 57.9777 332.594 54.5879 332.594 49.3842V46.0511C330.549 49.0917 327.085 51.1958 322.63 51.1958C314.661 51.1958 308.859 44.94 308.859 36.698C308.859 28.4559 314.661 22.08 322.573 22.08C327.085 22.08 330.542 24.1864 332.594 27.3426V22.6649H339.033ZM323.971 28.3947C319.225 28.3947 315.709 32.0226 315.709 36.639C315.709 41.3144 319.225 44.94 323.971 44.94C328.717 44.94 332.235 41.3122 332.235 36.639C332.235 32.0203 328.719 28.3947 323.971 28.3947Z" fill="#231F20"/>
    <path d="M350.206 39.2103C350.852 43.3619 354.298 46.2257 358.998 46.2257C362.595 46.1812 366.1 45.0837 369.078 43.0694V49.4432C366.616 50.8444 362.866 52.0734 358.53 52.0734C350.031 52.0734 343.701 45.8765 343.701 37.0472C343.701 28.5693 349.856 22.0822 358.177 22.0822C366.441 22.0822 371.892 28.338 371.892 35.9384C371.889 37.0425 371.751 38.142 371.48 39.2126L350.206 39.2103ZM350.15 34.2424H365.68C365.562 30.2064 362.339 27.4606 358.118 27.4606C353.782 27.4606 350.559 30.4989 350.15 34.2424Z" fill="#231F20"/>
</svg>
